<?xml version="1.0" standalone="no"?>
<!DOCTYPE svg PUBLIC "-//W3C//DTD SVG 20010904//EN"
 "http://www.w3.org/TR/2001/REC-SVG-20010904/DTD/svg10.dtd">
<svg version="1.0" xmlns="http://www.w3.org/2000/svg"
 width="700.000000pt" height="700.000000pt" viewBox="0 0 700.000000 700.000000"
 preserveAspectRatio="xMidYMid meet">
<metadata>
Created by potrace 1.11, written by Peter Selinger 2001-2013
</metadata>
<g transform="translate(0.000000,700.000000) scale(0.100000,-0.100000)"
fill="#000000" stroke="none">
<path d="M4755 6193 c3 -9 86 -145 185 -303 99 -158 182 -293 185 -301 3 -9
-164 -264 -433 -659 l-438 -643 -1019 -485 -1020 -486 -750 50 -750 49 -7 155
c-4 85 -10 258 -14 385 l-6 229 -24 -29 c-37 -47 -167 -307 -225 -450 -142
-356 -337 -1014 -325 -1100 7 -56 95 -321 145 -437 98 -231 178 -383 303 -574
l79 -122 93 -35 c51 -20 169 -54 262 -77 294 -71 4089 -959 4090 -957 12 19
1550 3943 1584 4041 71 204 85 289 84 486 -1 189 -17 269 -81 398 -45 91 -170
227 -270 294 -241 161 -686 330 -1323 502 -302 82 -333 88 -325 69z"/>
<path d="M3870 6189 c-1067 -93 -2421 -850 -2934 -1642 -128 -196 -189 -368
-190 -532 0 -159 37 -250 143 -356 172 -171 506 -247 916 -209 958 89 2148
698 2763 1415 161 189 261 353 324 538 30 85 32 102 32 222 1 121 -1 135 -29
200 -42 102 -151 209 -266 265 -191 91 -453 126 -759 99z"/>
</g>
</svg>
